#Comment line ignore any data following # character 
#Hierarchical Translation and Rotation (.htr) file 
[Header]	
#Header keywords are followed by a single value 
FileType HTR		#Single word string
DataType HTRS		#Translation followed by rotation and scale data
FileVersion 1		#integer
NumSegments 84		#integer
NumFrames 2		#integer
DataFrameRate 30		#integer, data frame rate in this file
EulerRotationOrder ZYX
CalibrationUnits mm
RotationUnits Degrees
GlobalAxisofGravity Y
BoneLengthAxis Y
ScaleFactor 1.00
[SegmentNames&Hierarchy]
#CHILD	PARENT
MASTER GLOBAL
root MASTER
chest root
L_mid_tent01 root
R_mid_tent01 root
spine01 root
Bip01_Neck chest
L_humerus chest
R_humerus chest
weapon_bone chest
Bip01_Head Bip01_Neck
eye_left_bone Bip01_Head
eye_right_bone Bip01_Head
L_forearm L_humerus
L_front_hand L_forearm
L_weapon_bone L_forearm
L_front_hand01_01 L_front_hand
L_front_hand02_01 L_front_hand
L_front_hand03_01 L_front_hand
L_front_hand01_02 L_front_hand01_01
L_front_hand02_02 L_front_hand02_01
L_front_hand03_02 L_front_hand03_01
R_forearm R_humerus
R_front_hand R_forearm
R_weapon_bone R_forearm
R_front_hand01_01 R_front_hand
R_front_hand02_01 R_front_hand
R_front_hand03_01 R_front_hand
R_front_hand01_02 R_front_hand01_01
R_front_hand02_02 R_front_hand02_01
R_front_hand03_02 R_front_hand03_01
null_rope01_connect L_mid_tent01
Rope1_Seg01 null_rope01_connect
Rope1_Seg02 Rope1_Seg01
Rope1_Seg03 Rope1_Seg02
Rope1_Seg04 Rope1_Seg03
Rope1_Seg05 Rope1_Seg04
Rope1_Seg06 Rope1_Seg05
Rope1_Seg07 Rope1_Seg06
Rope1_Seg09 Rope1_Seg07
L_mid_hand01 Rope1_Seg09
L_mid_hand02 Rope1_Seg09
L_mid_hand03 Rope1_Seg09
null_rope02_connect R_mid_tent01
Rope2_Seg01 null_rope02_connect
Rope2_Seg02 Rope2_Seg01
Rope2_Seg03 Rope2_Seg02
Rope2_Seg04 Rope2_Seg03
Rope2_Seg05 Rope2_Seg04
Rope2_Seg06 Rope2_Seg05
Rope2_Seg07 Rope2_Seg06
Rope2_Seg09 Rope2_Seg07
R_mid_hand01 Rope2_Seg09
R_mid_hand02 Rope2_Seg09
R_mid_hand03 Rope2_Seg09
spine02 spine01
spine03 spine02
pelvis spine03
null_rope03_connect pelvis
null_rope04_connect pelvis
Rope3_Seg01 null_rope03_connect
Rope3_Seg02 Rope3_Seg01
Rope3_Seg03 Rope3_Seg02
Rope3_Seg04 Rope3_Seg03
Rope3_Seg05 Rope3_Seg04
Rope3_Seg06 Rope3_Seg05
Rope3_Seg07 Rope3_Seg06
Rope3_Seg08 Rope3_Seg07
Rope3_Seg09 Rope3_Seg08
R_rear_hand01 Rope3_Seg09
R_rear_hand02 Rope3_Seg09
R_rear_hand03 Rope3_Seg09
Rope4_Seg01 null_rope04_connect
Rope4_Seg02 Rope4_Seg01
Rope4_Seg03 Rope4_Seg02
Rope4_Seg04 Rope4_Seg03
Rope4_Seg05 Rope4_Seg04
Rope4_Seg06 Rope4_Seg05
Rope4_Seg07 Rope4_Seg06
Rope4_Seg08 Rope4_Seg07
Rope4_Seg09 Rope4_Seg08
L_rear_hand01 Rope4_Seg09
L_rear_hand02 Rope4_Seg09
L_rear_hand03 Rope4_Seg09
[BasePosition]
#SegmentName Tx, Ty, Tz, Rx, Ry, Rz, BoneLength
MASTER 0.000000 0.000000 0.000000 -90.000000 0.000000 0.000000 10.000000 
root 0.000000 0.000000 0.000000 0.000000 0.000000 0.000000 10.000000 
chest 0.000000 0.000000 0.000000 0.000000 0.000000 0.000000 10.000000 
L_mid_tent01 0.000000 0.000000 0.000000 0.000000 0.000000 0.000000 10.000000 
R_mid_tent01 0.000000 0.000000 0.000000 0.000000 0.000000 0.000000 10.000000 
spine01 0.000000 0.000000 0.000000 0.000000 0.000000 0.000000 10.000000 
Bip01_Neck 0.000000 0.000000 0.000000 0.000000 0.000000 0.000000 10.000000 
L_humerus 0.000000 0.000000 0.000000 0.000000 0.000000 0.000000 10.000000 
R_humerus 0.000000 0.000000 0.000000 0.000000 0.000000 0.000000 10.000000 
weapon_bone 0.000000 0.000000 0.000000 0.000000 0.000000 0.000000 10.000000 
Bip01_Head 0.000000 0.000000 0.000000 0.000000 0.000000 0.000000 10.000000 
eye_left_bone 0.000000 0.000000 0.000000 0.000000 0.000000 0.000000 10.000000 
eye_right_bone 0.000000 0.000000 0.000000 0.000000 0.000000 0.000000 10.000000 
L_forearm 0.000000 0.000000 0.000000 0.000000 0.000000 0.000000 10.000000 
L_front_hand 0.000000 0.000000 0.000000 0.000000 0.000000 0.000000 10.000000 
L_weapon_bone 0.000000 0.000000 0.000000 0.000000 0.000000 0.000000 10.000000 
L_front_hand01_01 0.000000 0.000000 0.000000 0.000000 0.000000 0.000000 10.000000 
L_front_hand02_01 0.000000 0.000000 0.000000 0.000000 0.000000 0.000000 10.000000 
L_front_hand03_01 0.000000 0.000000 0.000000 0.000000 0.000000 0.000000 10.000000 
L_front_hand01_02 0.000000 0.000000 0.000000 0.000000 0.000000 0.000000 10.000000 
L_front_hand02_02 0.000000 0.000000 0.000000 0.000000 0.000000 0.000000 10.000000 
L_front_hand03_02 0.000000 0.000000 0.000000 0.000000 0.000000 0.000000 10.000000 
R_forearm 0.000000 0.000000 0.000000 0.000000 0.000000 0.000000 10.000000 
R_front_hand 0.000000 0.000000 0.000000 0.000000 0.000000 0.000000 10.000000 
R_weapon_bone 0.000000 0.000000 0.000000 0.000000 0.000000 0.000000 10.000000 
R_front_hand01_01 0.000000 0.000000 0.000000 0.000000 0.000000 0.000000 10.000000 
R_front_hand02_01 0.000000 0.000000 0.000000 0.000000 0.000000 0.000000 10.000000 
R_front_hand03_01 0.000000 0.000000 0.000000 0.000000 0.000000 0.000000 10.000000 
R_front_hand01_02 0.000000 0.000000 0.000000 0.000000 0.000000 0.000000 10.000000 
R_front_hand02_02 0.000000 0.000000 0.000000 0.000000 0.000000 0.000000 10.000000 
R_front_hand03_02 0.000000 0.000000 0.000000 0.000000 0.000000 0.000000 10.000000 
null_rope01_connect 0.000000 0.000000 0.000000 0.000000 0.000000 0.000000 10.000000 
Rope1_Seg01 0.000000 0.000000 0.000000 0.000000 0.000000 0.000000 10.000000 
Rope1_Seg02 0.000000 0.000000 0.000000 0.000000 0.000000 0.000000 10.000000 
Rope1_Seg03 0.000000 0.000000 0.000000 0.000000 0.000000 0.000000 10.000000 
Rope1_Seg04 0.000000 0.000000 0.000000 0.000000 0.000000 0.000000 10.000000 
Rope1_Seg05 0.000000 0.000000 0.000000 0.000000 0.000000 0.000000 10.000000 
Rope1_Seg06 0.000000 0.000000 0.000000 0.000000 0.000000 0.000000 10.000000 
Rope1_Seg07 0.000000 0.000000 0.000000 0.000000 0.000000 0.000000 10.000000 
Rope1_Seg09 0.000000 0.000000 0.000000 0.000000 0.000000 0.000000 10.000000 
L_mid_hand01 0.000000 0.000000 0.000000 0.000000 0.000000 0.000000 10.000000 
L_mid_hand02 0.000000 0.000000 0.000000 0.000000 0.000000 0.000000 10.000000 
L_mid_hand03 0.000000 0.000000 0.000000 0.000000 0.000000 0.000000 10.000000 
null_rope02_connect 0.000000 0.000000 0.000000 0.000000 0.000000 0.000000 10.000000 
Rope2_Seg01 0.000000 0.000000 0.000000 0.000000 0.000000 0.000000 10.000000 
Rope2_Seg02 0.000000 0.000000 0.000000 0.000000 0.000000 0.000000 10.000000 
Rope2_Seg03 0.000000 0.000000 0.000000 0.000000 0.000000 0.000000 10.000000 
Rope2_Seg04 0.000000 0.000000 0.000000 0.000000 0.000000 0.000000 10.000000 
Rope2_Seg05 0.000000 0.000000 0.000000 0.000000 0.000000 0.000000 10.000000 
Rope2_Seg06 0.000000 0.000000 0.000000 0.000000 0.000000 0.000000 10.000000 
Rope2_Seg07 0.000000 0.000000 0.000000 0.000000 0.000000 0.000000 10.000000 
Rope2_Seg09 0.000000 0.000000 0.000000 0.000000 0.000000 0.000000 10.000000 
R_mid_hand01 0.000000 0.000000 0.000000 0.000000 0.000000 0.000000 10.000000 
R_mid_hand02 0.000000 0.000000 0.000000 0.000000 0.000000 0.000000 10.000000 
R_mid_hand03 0.000000 0.000000 0.000000 0.000000 0.000000 0.000000 10.000000 
spine02 0.000000 0.000000 0.000000 0.000000 0.000000 0.000000 10.000000 
spine03 0.000000 0.000000 0.000000 0.000000 0.000000 0.000000 10.000000 
pelvis 0.000000 0.000000 0.000000 0.000000 0.000000 0.000000 10.000000 
null_rope03_connect 0.000000 0.000000 0.000000 0.000000 0.000000 0.000000 10.000000 
null_rope04_connect 0.000000 0.000000 0.000000 0.000000 0.000000 0.000000 10.000000 
Rope3_Seg01 0.000000 0.000000 0.000000 0.000000 0.000000 0.000000 10.000000 
Rope3_Seg02 0.000000 0.000000 0.000000 0.000000 0.000000 0.000000 10.000000 
Rope3_Seg03 0.000000 0.000000 0.000000 0.000000 0.000000 0.000000 10.000000 
Rope3_Seg04 0.000000 0.000000 0.000000 0.000000 0.000000 0.000000 10.000000 
Rope3_Seg05 0.000000 0.000000 0.000000 0.000000 0.000000 0.000000 10.000000 
Rope3_Seg06 0.000000 0.000000 0.000000 0.000000 0.000000 0.000000 10.000000 
Rope3_Seg07 0.000000 0.000000 0.000000 0.000000 0.000000 0.000000 10.000000 
Rope3_Seg08 0.000000 0.000000 0.000000 0.000000 0.000000 0.000000 10.000000 
Rope3_Seg09 0.000000 0.000000 0.000000 0.000000 0.000000 0.000000 10.000000 
R_rear_hand01 0.000000 0.000000 0.000000 0.000000 0.000000 0.000000 10.000000 
R_rear_hand02 0.000000 0.000000 0.000000 0.000000 0.000000 0.000000 10.000000 
R_rear_hand03 0.000000 0.000000 0.000000 0.000000 0.000000 0.000000 10.000000 
Rope4_Seg01 0.000000 0.000000 0.000000 0.000000 0.000000 0.000000 10.000000 
Rope4_Seg02 0.000000 0.000000 0.000000 0.000000 0.000000 0.000000 10.000000 
Rope4_Seg03 0.000000 0.000000 0.000000 0.000000 0.000000 0.000000 10.000000 
Rope4_Seg04 0.000000 0.000000 0.000000 0.000000 0.000000 0.000000 10.000000 
Rope4_Seg05 0.000000 0.000000 0.000000 0.000000 0.000000 0.000000 10.000000 
Rope4_Seg06 0.000000 0.000000 0.000000 0.000000 0.000000 0.000000 10.000000 
Rope4_Seg07 0.000000 0.000000 0.000000 0.000000 0.000000 0.000000 10.000000 
Rope4_Seg08 0.000000 0.000000 0.000000 0.000000 0.000000 0.000000 10.000000 
Rope4_Seg09 0.000000 0.000000 0.000000 0.000000 0.000000 0.000000 10.000000 
L_rear_hand01 0.000000 0.000000 0.000000 0.000000 0.000000 0.000000 10.000000 
L_rear_hand02 0.000000 0.000000 0.000000 0.000000 0.000000 0.000000 10.000000 
L_rear_hand03 0.000000 0.000000 0.000000 0.000000 0.000000 0.000000 10.000000 
#Beginning of Data. Separated by tabs
#Fr	Tx	Ty	Tz	Rx	Ry	Rz	SF
[MASTER]
24 -0.000979 5069.752441 -38.951046 0.001660 0.001660 0.001660 5069.901855
25 -0.000998 5249.698242 -72.197701 0.001660 0.001660 0.001660 5250.194336
[root]
24 -17.000311 -62.804871 1500.509644 -92.366661 -26.779060 -90.454697 1501.919556
25 -16.502293 -62.822231 1500.000000 -91.629707 -27.676073 -90.148094 1501.405640
[chest]
24 -84.512650 -34.090519 0.000000 -1.944089 0.804849 179.722504 91.129311
25 -84.512650 -34.090519 0.000000 -1.982350 0.706444 178.324020 91.129311
[L_mid_tent01]
24 27.299160 22.179245 -249.918732 -20.661390 12.026041 12.983019 252.381729
25 27.299164 22.179249 -249.918732 -20.661396 12.026044 12.983024 252.381729
[R_mid_tent01]
24 23.228794 24.509907 226.238495 -165.192200 -17.956036 24.056787 228.744751
25 23.228794 24.509907 226.238495 -165.192200 -17.956036 24.056787 228.744751
[spine01]
24 -0.361383 -0.195265 0.000000 0.001989 0.001246 25.871983 0.410763
25 -0.361383 -0.195265 0.000000 0.001983 0.001256 25.277519 0.410763
[Bip01_Neck]
24 165.484543 71.581718 0.000119 176.643677 -1.657967 43.431911 180.302734
25 165.484543 71.581718 0.000119 176.643677 -1.657967 43.431911 180.302734
[L_humerus]
24 -13.983130 -135.272980 -120.471481 -5.996302 67.439514 83.996559 181.680161
25 -13.983130 -135.272980 -120.471481 -5.885040 67.769104 84.123245 181.680161
[R_humerus]
24 -13.983309 -135.273102 125.287651 27.132114 -68.397118 68.539772 184.909012
25 -13.983309 -135.273102 125.287651 27.298094 -68.743820 68.370247 184.909012
[weapon_bone]
24 235.964890 -300.705902 0.000000 0.000000 -89.951546 -128.212341 382.234833
25 235.964890 -300.705902 0.000000 0.000000 -89.951546 -128.212341 382.234833
[Bip01_Head]
24 213.326767 186.042389 7.559204 5.200446 6.151311 -43.834991 283.155823
25 213.326706 186.042404 7.559204 5.200446 6.151311 -43.834991 283.155792
[eye_left_bone]
24 -24.626970 125.451866 -64.772606 0.000000 -90.000000 -99.840431 143.318359
25 -24.626970 125.451866 -64.772606 0.000000 -90.000000 -99.840431 143.318359
[eye_right_bone]
24 -24.626970 125.451866 64.327362 0.000000 -89.965736 80.156380 143.117676
25 -24.626970 125.451866 64.327362 0.000000 -89.965736 80.156380 143.117676
[L_forearm]
24 322.776093 0.000000 -0.000119 0.000406 -0.002312 -109.903984 322.776093
25 322.776093 0.000000 -0.000119 0.000404 -0.002312 -109.798210 322.776093
[L_front_hand]
24 241.149185 -0.042021 -3.300071 -178.667953 -1.835447 -27.422350 241.171753
25 241.149185 -0.042021 -3.300071 -178.667953 -1.835447 -27.422350 241.171753
[L_weapon_bone]
24 156.183838 0.000000 0.000000 0.000014 0.000007 0.000001 156.183838
25 156.183838 0.000000 0.000000 0.000014 0.000007 0.000001 156.183838
[L_front_hand01_01]
24 86.095154 20.947098 -0.655860 -0.328329 -0.501879 70.955482 88.609184
25 86.095154 20.947098 -0.655860 -0.335131 -0.500211 71.723793 88.609184
[L_front_hand02_01]
24 86.935165 -11.437475 24.513514 147.981094 -57.745911 -53.867275 91.046425
25 86.935165 -11.437475 24.513514 149.028946 -58.148323 -55.100948 91.046425
[L_front_hand03_01]
24 86.637497 -14.123976 -20.424902 -147.939621 55.963066 -55.586479 90.126129
25 86.637497 -14.123976 -20.424902 -148.918823 56.366688 -56.764717 90.126129
[L_front_hand01_02]
24 71.020905 -0.000179 0.000030 0.000320 -0.002325 -105.673012 71.020905
25 71.020905 -0.000179 0.000030 0.000321 -0.002325 -105.728027 71.020905
[L_front_hand02_02]
24 71.020927 -0.000119 0.000060 0.000320 -0.002325 -105.673012 71.020927
25 71.020927 -0.000119 0.000060 0.000321 -0.002325 -105.728027 71.020927
[L_front_hand03_02]
24 71.020905 -0.000060 0.000060 0.000320 -0.002325 -105.673012 71.020905
25 71.020905 -0.000060 0.000060 0.000321 -0.002325 -105.728027 71.020905
[R_forearm]
24 322.776428 -0.000060 0.000030 0.201820 0.066029 -108.557014 322.776428
25 322.776428 -0.000060 0.000030 0.201883 0.065835 -108.447281 322.776428
[R_front_hand]
24 238.847015 -0.006795 2.210259 -2.635298 -10.645461 -26.312506 238.857239
25 238.847015 -0.006795 2.210259 -2.635298 -10.645461 -26.312506 238.857239
[R_weapon_bone]
24 155.664093 0.002503 -0.000030 0.003487 0.001180 -90.988930 155.664078
25 155.664093 0.002503 -0.000030 0.003487 0.001180 -90.988930 155.664078
[R_front_hand01_01]
24 87.624611 14.231146 22.918642 -150.319733 -58.611870 56.726913 91.683487
25 87.624611 14.231146 22.918642 -151.998260 -59.169334 58.688148 91.683487
[R_front_hand02_01]
24 89.356956 14.367283 -19.491137 150.553223 56.974075 58.956432 92.579636
25 89.356956 14.367283 -19.491137 152.130127 57.525928 60.828327 92.579636
[R_front_hand03_01]
24 87.286232 -22.307278 -0.143439 0.140549 -0.429018 -72.881989 90.091743
25 87.286232 -22.307278 -0.143439 0.147862 -0.431521 -74.042168 90.091743
[R_front_hand01_02]
24 71.020905 0.000060 0.000119 0.002323 -0.000334 106.381714 71.020905
25 71.020905 0.000060 0.000119 0.002323 -0.000334 106.381714 71.020905
[R_front_hand02_02]
24 71.020844 -0.000030 -0.000119 0.002323 -0.000334 106.381714 71.020836
25 71.020844 -0.000030 -0.000119 0.002323 -0.000334 106.381714 71.020836
[R_front_hand03_02]
24 71.020905 0.000000 0.000030 0.002323 -0.000334 106.381714 71.020905
25 71.020905 0.000000 0.000030 0.002323 -0.000334 106.381714 71.020905
[null_rope01_connect]
24 328.732483 0.000000 -0.000238 -137.941483 -63.644188 -120.400826 328.732483
25 328.732483 0.000000 -0.000238 -137.102036 -64.563484 -120.331505 328.732483
[Rope1_Seg01]
24 -0.000029 0.000009 0.000117 46.548759 -4.216010 -119.169632 0.000121
25 -0.000031 0.000008 0.000122 48.141151 -5.657699 -120.006126 0.000126
[Rope1_Seg02]
24 139.999863 -0.000179 0.000000 -5.833646 1.555941 3.374835 139.999863
25 139.999863 -0.000179 0.000000 -6.633031 2.169814 3.711694 139.999863
[Rope1_Seg03]
24 139.999924 0.000060 -0.000060 -3.956211 0.379594 3.344223 139.999924
25 139.999924 0.000060 -0.000060 -5.132017 1.183477 3.820977 139.999924
[Rope1_Seg04]
24 139.999924 -0.000060 -0.000119 -4.211968 0.387133 4.016794 139.999924
25 139.999924 -0.000060 -0.000119 -5.334851 1.135312 4.653826 139.999924
[Rope1_Seg05]
24 139.999832 0.000119 -0.000060 -9.947206 5.417428 5.053555 139.999832
25 139.999832 0.000119 -0.000060 -8.090140 3.997120 5.252597 139.999832
[Rope1_Seg06]
24 139.999954 0.000119 -0.000060 -5.052314 2.532268 2.915764 139.999954
25 139.999954 0.000119 -0.000060 -3.844728 1.787679 2.772813 139.999954
[Rope1_Seg07]
24 139.999985 0.000060 0.000000 -2.363701 0.970816 1.653747 139.999985
25 139.999985 0.000060 0.000000 -1.882902 0.710665 1.602577 139.999985
[Rope1_Seg09]
24 121.602913 0.000119 -0.000089 -89.793175 -1.359789 0.847147 121.602913
25 121.602913 0.000119 -0.000089 -89.793175 -1.359789 0.847147 121.602913
[L_mid_hand01]
24 103.859421 1.038730 8.195221 130.544373 -67.584534 -38.866943 104.187431
25 103.859421 1.038730 8.195221 130.544373 -67.584534 -38.866943 104.187431
[L_mid_hand02]
24 105.572853 -4.139662 -10.864139 -168.923172 43.409321 -73.498909 106.211075
25 105.572853 -4.139662 -10.864139 -168.923172 43.409309 -73.498886 106.211075
[L_mid_hand03]
24 104.641464 17.579376 -3.913581 -6.012627 17.808178 74.893677 106.179977
25 104.641464 17.579376 -3.913581 -6.012627 17.808174 74.893669 106.179977
[null_rope02_connect]
24 328.732849 0.000179 -0.000119 -125.959236 69.372284 -36.174168 328.732849
25 328.732849 0.000179 -0.000119 -125.470810 68.467499 -36.615189 328.732849
[Rope2_Seg01]
24 0.000067 0.000036 0.000000 45.061642 -0.515206 -50.220028 0.000076
25 0.000069 0.000031 0.000000 39.639919 -0.940721 -48.224525 0.000075
[Rope2_Seg02]
24 139.999741 -0.000060 -0.000119 13.210089 -10.849863 -2.998738 139.999756
25 139.999741 -0.000060 -0.000119 14.938372 -11.344487 -3.796168 139.999756
[Rope2_Seg03]
24 140.000107 0.000030 0.000000 2.464551 -8.277228 1.603930 140.000107
25 140.000107 0.000030 0.000000 2.750656 -8.761522 1.547382 140.000107
[Rope2_Seg04]
24 139.999802 0.000000 -0.000060 3.947924 -7.532117 -0.679857 139.999802
25 139.999802 0.000000 -0.000060 4.525836 -8.067774 -1.141335 139.999802
[Rope2_Seg05]
24 139.999985 -0.000060 0.000119 7.290696 -6.929068 -5.530856 139.999985
25 139.999985 -0.000060 0.000119 7.451042 -7.304952 -5.850037 139.999985
[Rope2_Seg06]
24 139.999893 -0.000030 -0.000119 3.491308 -4.367871 -2.825425 139.999893
25 139.999893 -0.000030 -0.000119 3.337987 -4.472297 -2.763173 139.999893
[Rope2_Seg07]
24 139.999893 0.000060 -0.000060 1.501826 -2.630109 -1.126210 139.999893
25 139.999893 0.000060 -0.000060 1.448113 -2.689937 -1.130686 139.999893
[Rope2_Seg09]
24 121.338966 0.000089 -0.000060 33.793236 -1.359788 -0.847141 121.338966
25 121.338966 0.000089 -0.000060 33.793236 -1.359788 -0.847141 121.338966
[R_mid_hand01]
24 104.680779 11.144459 -10.335981 -16.212063 45.237240 70.462852 105.778534
25 104.680779 11.144459 -10.335981 -16.212063 45.237247 70.462852 105.778534
[R_mid_hand02]
24 104.070427 2.443552 8.231699 49.067368 -67.749771 39.286453 104.424065
25 104.070427 2.443552 8.231699 49.067368 -67.749771 39.286453 104.424065
[R_mid_hand03]
24 106.028137 -11.221827 -5.996406 -177.101105 15.551026 -76.585571 106.788818
25 106.028137 -11.221827 -5.996406 -177.101105 15.551026 -76.585571 106.788818
[spine02]
24 129.756927 0.001550 0.000119 0.409493 -4.039580 -13.619255 129.756927
25 129.756927 0.001550 0.000119 0.396567 -4.041012 -13.461841 129.756927
[spine03]
24 78.613930 0.081518 -4.898993 1.925175 3.816900 16.913916 78.766472
25 78.613930 0.081512 -4.898993 1.919039 3.820584 16.820398 78.766472
[pelvis]
24 169.435242 0.051022 0.000000 -0.061859 -0.179752 14.975389 169.435257
25 169.435242 0.051022 0.000000 -0.061550 -0.179858 14.778402 169.435257
[null_rope03_connect]
24 -1.257226 -2.466202 137.391083 -128.897903 -88.449844 -158.443390 137.418976
25 -1.257226 -2.466202 137.391083 -119.219162 -89.344788 -166.478699 137.418976
[null_rope04_connect]
24 -1.259640 -2.480268 -137.844437 -128.897903 -88.449844 -158.443390 137.872513
25 -1.259640 -2.480268 -137.844437 -119.219162 -89.344788 -166.478699 137.872513
[Rope3_Seg01]
24 0.000010 0.000038 -0.000114 -130.326813 0.158140 -89.506325 0.000121
25 0.000010 0.000038 -0.000114 -130.473877 0.533872 -87.856354 0.000121
[Rope3_Seg02]
24 139.999924 -0.000119 0.000060 -0.132772 -3.087593 -1.988697 139.999924
25 139.999924 -0.000119 0.000060 -0.068274 -2.809376 -1.990476 139.999924
[Rope3_Seg03]
24 139.999924 -0.000119 0.000119 -0.009308 -3.660047 -2.754458 139.999924
25 139.999924 -0.000119 0.000119 0.039699 -3.371822 -2.805204 139.999924
[Rope3_Seg04]
24 139.999924 0.000119 0.000000 0.086571 -4.276691 -3.466497 139.999924
25 139.999924 0.000119 0.000000 0.117495 -3.998499 -3.600738 139.999924
[Rope3_Seg05]
24 139.999924 -0.000238 0.000060 0.221229 2.488332 3.954847 139.999924
25 139.999924 -0.000238 0.000060 0.230996 2.418271 4.296414 139.999924
[Rope3_Seg06]
24 139.999893 -0.000119 -0.000060 0.605132 3.595784 4.707901 139.999893
25 139.999893 -0.000119 -0.000060 0.577389 3.471638 5.102448 139.999893
[Rope3_Seg07]
24 139.999771 0.000060 -0.000119 0.537614 1.374874 1.996547 139.999771
25 139.999771 0.000060 -0.000119 0.512722 1.362035 2.208899 139.999771
[Rope3_Seg08]
24 139.999985 -0.000060 0.000000 0.550568 0.885881 1.264674 139.999985
25 139.999985 -0.000060 0.000000 0.531815 0.880496 1.405467 139.999985
[Rope3_Seg09]
24 90.185997 -0.000179 -0.000060 89.793228 -1.359877 -0.847183 90.185997
25 90.185997 -0.000179 -0.000060 89.793228 -1.359877 -0.847183 90.185997
[R_rear_hand01]
24 103.366196 -6.073594 -10.757982 -177.714203 24.565960 -73.910950 104.101845
25 103.366196 -6.073594 -10.757982 -177.714203 24.565960 -73.910950 104.101845
[R_rear_hand02]
24 100.509819 12.039542 -7.992327 -12.874829 36.868488 72.167213 101.543350
25 100.509819 12.039542 -7.992327 -12.874829 36.868488 72.167213 101.543350
[R_rear_hand03]
24 101.539970 5.215704 5.435467 71.484627 -71.816643 21.513817 101.819031
25 101.539970 5.215704 5.435467 71.484581 -71.816628 21.513813 101.819031
[Rope4_Seg01]
24 0.000010 0.000038 -0.000114 47.606342 9.369729 -111.481453 0.000121
25 0.000010 0.000038 -0.000114 47.658634 9.752898 -111.019020 0.000121
[Rope4_Seg02]
24 139.999985 0.000060 0.000119 0.385830 0.729353 4.367378 139.999985
25 139.999985 0.000060 0.000119 0.347160 0.879256 4.387423 139.999985
[Rope4_Seg03]
24 139.999924 0.000000 -0.000238 0.282836 1.070999 6.229331 139.999924
25 139.999924 0.000000 -0.000238 0.221258 1.292215 6.288740 139.999924
[Rope4_Seg04]
24 139.999985 0.000000 0.000119 -1.048467 0.413090 18.511806 139.999985
25 139.999985 0.000000 0.000119 -1.336707 1.491385 19.162006 139.999985
[Rope4_Seg05]
24 139.999802 -0.000060 -0.000119 0.708511 5.013630 -2.289274 139.999802
25 139.999802 -0.000060 -0.000119 0.858563 4.140207 -2.862814 139.999802
[Rope4_Seg06]
24 139.999924 0.000000 0.000060 2.160087 3.464647 -13.235605 139.999924
25 139.999924 0.000000 0.000060 2.462340 2.278063 -14.635043 139.999924
[Rope4_Seg07]
24 139.999802 0.000000 0.000000 0.649050 1.237428 -3.280909 139.999802
25 139.999802 0.000000 0.000000 0.637126 0.848779 -3.728440 139.999802
[Rope4_Seg08]
24 139.999924 0.000000 0.000119 -1.166453 0.665658 -1.830279 139.999924
25 139.999924 0.000000 0.000119 -1.188736 0.450070 -2.075496 139.999924
[Rope4_Seg09]
24 90.185791 0.000060 0.000060 -135.617828 2.228885 0.850567 90.185791
25 90.185791 0.000060 0.000060 -135.617828 2.228885 0.850567 90.185791
[L_rear_hand01]
24 101.696655 -8.392275 -7.654577 -12.874829 -36.868488 107.832764 102.329041
25 101.696655 -8.392275 -7.654577 -12.874829 -36.868488 107.832764 102.329041
[L_rear_hand02]
24 102.726799 -1.568258 5.773216 71.484627 71.816643 158.486176 102.900848
25 102.726799 -1.568258 5.773216 71.484581 71.816628 158.486160 102.900848
[L_rear_hand03]
24 104.552910 9.721220 -10.420293 -177.714203 -24.565960 -106.089035 105.519653
25 104.552910 9.721220 -10.420293 -177.714203 -24.565960 -106.089035 105.519653
